<svg width="88" height="95" viewBox="0 0 88 95" fill="none" xmlns="http://www.w3.org/2000/svg">
<path d="M67.7782 26.8644L66.8965 39.2091C66.8377 40.2672 67.1316 41.2665 67.7782 42.0895L73.0688 49.026C73.8918 50.1429 73.8918 51.6713 73.01 52.7294L70.3647 55.9038L70.2472 66.3086C70.2472 68.4836 68.6012 70.2471 66.4262 70.4823L55.0808 71.5992L46.851 82.6506L34.9766 75.3026L46.4983 30.6266L67.7782 26.8644Z" fill="#DDDDDD"/>
<path d="M46.851 52.7295C45.499 43.324 52.0828 34.5651 61.4883 33.2131L62.664 33.0368C67.3079 32.3901 70.4823 28.0989 69.8357 23.4549C68.8363 16.5184 62.3701 11.6393 55.4335 12.6386L44.3821 14.2258L36.4462 15.4015C22.6319 17.4001 13.0501 30.1563 14.99 43.9706L17.4589 61.3708C18.7522 70.5999 27.3347 77.0662 36.6226 75.7141L38.151 75.479C45.1463 74.4796 50.7896 70.1296 53.8463 64.31C50.2017 61.6647 47.5564 57.6086 46.851 52.7295Z" fill="#663C00"/>
</svg>
