<svg width="80" height="87" viewBox="0 0 80 87" fill="none" xmlns="http://www.w3.org/2000/svg">
<path d="M66.1055 45.2638L59.5858 37.5685C58.998 36.8203 58.7308 35.8584 58.7842 34.9499V31.9572C58.7308 23.2999 51.7301 16.2993 43.0728 16.2993H39.5457V16.3527C39.1182 16.3527 38.6907 16.2993 38.3166 16.2993C27.0407 16.2993 17.9025 25.4375 17.9025 36.7134C17.9025 45.6914 23.7274 53.3333 31.7969 56.0588L26.1857 66.2124L40.4008 74.9232L47.9893 64.7161L58.4636 63.7007C60.4409 63.487 61.9372 61.8303 61.9906 59.853L62.0975 50.2338L65.2505 49.0581C66.6399 48.5237 67.1743 46.5464 66.1055 45.2638Z" fill="#DCDCDC"/>
<path d="M19.8798 45.638L26.0788 56.1122L23.6206 64.823L33.9345 71.0221L33.1864 39.0648L19.8798 45.638Z" fill="#DCDCDC"/>
<path d="M38.3166 22.9259L41.3093 25.9185C42.8056 27.4149 43.6072 29.4456 43.6072 31.5298V35.9118C43.6072 37.996 42.7522 40.0267 41.3093 41.5231L39.332 43.5004C38.5838 44.2485 37.3013 44.2485 36.5531 43.5004L34.4689 41.4162C32.8657 39.813 30.2472 39.813 28.6439 41.4162C27.0407 43.0194 27.0407 45.638 28.6439 47.2412L30.6212 49.2185C31.3694 49.9666 31.3694 51.2492 30.6212 51.9974L26.1323 56.4863L18.0093 48.4703C15.0167 45.4776 13.36 41.4696 13.36 37.2479V33.2398C13.36 29.0715 15.0167 25.0635 17.9559 22.0708L24.0481 15.9252C27.0407 12.9326 31.1022 11.2225 35.324 11.2225H52.2645C55.4709 11.2225 58.0895 13.841 58.0895 17.0475C58.0895 20.2539 55.4709 22.8724 52.2645 22.8724H39.7061H38.3166V22.9259Z" fill="#666666"/>
</svg>
