<?xml version="1.0" encoding="utf-8"?>
<!-- Generator: Adobe Illustrator 24.0.3, SVG Export Plug-In . SVG Version: 6.00 Build 0)  -->
<svg version="1.1" id="Layer_1" xmlns="http://www.w3.org/2000/svg" xmlns:xlink="http://www.w3.org/1999/xlink" x="0px" y="0px"
	 viewBox="0 0 149.7 161.2" style="enable-background:new 0 0 149.7 161.2;" xml:space="preserve">
<style type="text/css">
	.st0{fill:#DDDDDD;}
	.st1{fill:#663C00;}
</style>
<path class="st0" d="M115.3,45.7l-1.5,21c-0.1,1.8,0.4,3.5,1.5,4.9l9,11.8c1.4,1.9,1.4,4.5-0.1,6.3l-4.5,5.4l-0.2,17.7
	c0,3.7-2.8,6.7-6.5,7.1l-19.3,1.9l-14,18.8l-20.2-12.5l19.6-76L115.3,45.7z"/>
<path class="st1" d="M79.7,89.7c-2.3-16,8.9-30.9,24.9-33.2l2-0.3c7.9-1.1,13.3-8.4,12.2-16.3l0,0c-1.7-11.8-12.7-20.1-24.5-18.4
	l-18.8,2.7l-13.5,2c-23.5,3.4-39.8,25.1-36.5,48.6l4.2,29.6c2.2,15.7,16.8,26.7,32.6,24.4l2.6-0.4c11.9-1.7,21.5-9.1,26.7-19
	C85.4,104.9,80.9,98,79.7,89.7z"/>
</svg>
