<svg width="80" height="87" viewBox="0 0 80 87" fill="none" xmlns="http://www.w3.org/2000/svg">
<path d="M66.2659 45.0501L59.7462 37.3547C59.1583 36.6066 58.8911 35.6446 58.9446 34.7361V31.7435C58.8911 23.0862 51.8905 16.0855 43.2331 16.0855H39.7061V16.139C39.2786 16.139 38.851 16.0855 38.477 16.0855C27.2011 16.0855 18.0628 25.2238 18.0628 36.4997C18.0628 45.4776 23.8878 53.1196 31.9573 55.845L26.346 65.9987L40.5611 74.7094L48.0962 64.5023L58.5705 63.487C60.5478 63.2732 62.0441 61.6166 62.0975 59.6393L62.2044 50.02L65.3574 48.8444C66.8537 48.31 67.3347 46.3327 66.2659 45.0501Z" fill="#DCDCDC"/>
<path d="M20.0935 45.4242L26.2391 55.8984L23.7809 64.6092L34.0948 70.8083L33.3467 38.7976L20.0935 45.4242Z" fill="#DCDCDC"/>
<path d="M62.151 52.1577V50.02H50.7147C46.8671 50.02 43.7675 46.9205 43.7675 43.0728V33.0261H38.7441V40.8283L35.4308 42.004L38.1029 44.676C38.5304 45.1035 38.7441 45.638 38.7441 46.1724V52.5852C38.7441 53.654 39.1182 54.6694 39.8664 55.471L48.0962 64.5023L58.7842 63.4335C60.7081 63.2198 62.151 61.6166 62.151 59.6927V54.1884H57.7154C57.1276 54.1884 56.7 53.7074 56.7 53.173C56.7 52.5852 57.181 52.1577 57.7154 52.1577H62.151Z" fill="#D8953D"/>
<path d="M49.2184 11.0087H35.5378C31.316 11.0087 27.2545 12.7188 24.2619 15.7114L18.1162 21.857C15.177 24.8497 13.5204 28.8577 13.5204 33.026V37.0341C13.5204 41.2558 15.177 45.2638 18.1697 48.2565L26.2926 56.3794L30.7816 51.8904C31.5297 51.1423 31.5297 49.8597 30.7816 49.1115L28.8043 47.1343C27.2011 45.531 27.2011 42.9125 28.8043 41.3093C30.4075 39.7061 33.0261 39.7061 34.6293 41.3093L36.7134 43.3934C37.4616 44.1416 38.7442 44.1416 39.4923 43.3934H43.7675V25.7047H56.1657C57.3414 25.7047 58.3033 24.7428 58.3033 23.5671V20.0935C58.3033 15.0701 54.2418 11.0087 49.2184 11.0087Z" fill="#D8953D"/>
</svg>
