<svg width="113" height="23" viewBox="0 0 113 23" fill="none" xmlns="http://www.w3.org/2000/svg">
<g clip-path="url(#clip0_29_5)">
<path d="M0 0H22.5091C22.5091 7.66573 22.5091 15.3343 22.5091 23H0V0ZM1.65768 3.60988C2.66183 8.28561 3.5622 12.9866 4.52988 17.6707C4.70659 18.2317 4.5972 18.9722 5.14134 19.348C6.12305 19.5051 7.13 19.4659 8.12012 19.3985C8.65866 19.4154 8.78768 18.7815 8.88585 18.3748C9.56183 15.0398 10.2967 11.716 10.9699 8.38098C11.0232 8.07244 11.1185 7.77232 11.2644 7.49463C12.1031 11.0737 12.7959 14.6835 13.5756 18.2738C13.6822 18.6552 13.7046 19.1265 14.0805 19.3593C15.152 19.4883 16.2515 19.4995 17.3201 19.3509C17.7044 19.1237 17.724 18.6552 17.8222 18.2682C18.8123 13.3849 19.7351 8.48195 20.7813 3.60988C19.8361 3.61549 18.8937 3.61268 17.9512 3.61268C17.1995 7.86207 16.5965 12.1395 15.7662 16.3749C14.8322 12.7818 14.2067 9.10183 13.3933 5.47512C13.2082 4.85524 13.2923 3.95207 12.6135 3.63793C11.7833 3.58744 10.9474 3.58463 10.1172 3.63793C9.64598 3.6772 9.53939 4.23537 9.44683 4.60561C8.69512 8.20146 7.90695 11.7889 7.17207 15.3848C7.09634 15.7185 6.98415 16.0383 6.85793 16.3552C6.10342 12.1171 5.38817 7.86768 4.73744 3.61268C3.71085 3.60988 2.68427 3.61549 1.65768 3.60988Z" fill="#231F20"/>
<path d="M22.5092 0H44.8079C44.8079 7.66573 44.8079 15.3343 44.8079 23H22.5092C22.5092 15.3343 22.5092 7.66573 22.5092 0ZM28.2199 3.45841C28.2087 4.40085 28.2087 5.34049 28.2199 6.28293C29.5017 6.29134 30.7835 6.28573 32.0654 6.28573C32.0598 9.76098 32.0598 13.239 32.0654 16.7143C30.7835 16.7143 29.5017 16.7087 28.2199 16.7171C28.2087 17.6595 28.2087 18.5991 28.2227 19.5416C31.8466 19.55 35.4705 19.55 39.0944 19.5416C39.1084 18.602 39.1056 17.6595 39.1 16.7199C37.8154 16.7087 36.5335 16.7143 35.2517 16.7143C35.2573 13.239 35.2573 9.76098 35.2517 6.28573C36.5335 6.28573 37.8154 6.29134 39.0972 6.28293C39.1084 5.34049 39.1084 4.39805 39.0944 3.45841C35.4705 3.45 31.8466 3.45 28.2199 3.45841Z" fill="white"/>
<path d="M44.8079 0H67.3171C67.3171 7.66573 67.3171 15.3343 67.3171 23H44.8079C44.8079 15.3343 44.8079 7.66573 44.8079 0ZM49.8932 3.61268C49.8932 8.87183 49.8932 14.1282 49.8932 19.3873C50.931 19.3873 51.9716 19.3873 53.0122 19.3873C53.0122 17.3313 53.0122 15.2726 53.0122 13.2166C54.7035 13.2222 56.3949 13.2082 58.0862 13.2194C58.7033 13.1605 59.4382 13.6009 59.4241 14.2796C59.5027 15.985 59.6485 17.6848 59.7551 19.3873C60.7452 19.3873 61.7325 19.3873 62.7227 19.3901C62.4422 17.4604 62.7872 15.4661 62.243 13.5756C61.9625 12.5855 60.8686 12.3639 60.016 12.1171C60.6499 11.7805 61.4633 11.7496 61.9233 11.1326C62.5908 10.2855 62.6385 9.15512 62.6413 8.12293C62.6301 6.91683 62.6582 5.59012 61.8924 4.57756C61.281 3.7361 60.1366 3.61268 59.1773 3.61268C56.0835 3.60988 52.9869 3.61268 49.8932 3.61268Z" fill="#231F20"/>
<path d="M67.317 0H89.686C89.686 7.66573 89.686 15.3343 89.686 23H67.317C67.317 15.3343 67.317 7.66573 67.317 0ZM71.3392 3.46122C71.328 4.39805 71.328 5.33768 71.3336 6.27451C72.0489 6.28854 72.7641 6.28854 73.4794 6.28293C73.4934 9.76098 73.4934 13.239 73.4794 16.7171C72.7641 16.7115 72.0517 16.7115 71.3364 16.7199C71.328 17.6595 71.3252 18.5991 71.3392 19.5388C75.8495 19.5528 80.3569 19.5528 84.8672 19.5388C84.8896 17.6791 84.8756 15.8195 84.8756 13.9599C83.8967 13.9515 82.9178 13.9515 81.9389 13.9627C81.9361 14.8799 81.9361 15.7971 81.9389 16.7143C80.155 16.7171 78.3711 16.703 76.5872 16.7227C76.5591 15.3455 76.5788 13.9655 76.5731 12.5883C77.9756 12.5883 79.378 12.5883 80.7805 12.5883C80.7805 11.6935 80.7805 10.7988 80.7805 9.90402C79.378 9.90402 77.9756 9.90402 76.5731 9.90402C76.5731 8.69793 76.5703 7.49183 76.576 6.28573C78.315 6.28854 80.0512 6.28854 81.7902 6.28573C81.7846 7.08793 81.7846 7.89012 81.7874 8.69512C82.7495 8.69512 83.7116 8.69512 84.6737 8.69512C84.6709 6.95049 84.6765 5.20585 84.6709 3.46122C80.2251 3.4472 75.7822 3.4472 71.3392 3.46122Z" fill="white"/>
<path d="M89.6859 0H112.476V23H89.6859C89.6859 15.3343 89.6859 7.66573 89.6859 0ZM94.7712 3.61268C94.7712 8.87183 94.7712 14.1282 94.7712 19.3873C97.3937 19.3817 100.014 19.3985 102.636 19.3789C104.252 19.348 106.134 19.0479 107.107 17.6006C108.243 15.783 108.072 13.5588 108.271 11.5084C108.069 9.45524 108.249 7.22256 107.107 5.39939C106.201 4.04463 104.468 3.68841 102.945 3.63232C100.221 3.58744 97.4947 3.6239 94.7712 3.61268Z" fill="#231F20"/>
<path d="M28.2199 3.4584C31.8466 3.44998 35.4705 3.44998 39.0944 3.4584C39.1084 4.39803 39.1084 5.34047 39.0972 6.28291C37.8154 6.29133 36.5336 6.28572 35.2517 6.28572C35.2573 9.76096 35.2573 13.239 35.2517 16.7143C36.5336 16.7143 37.8154 16.7086 39.1 16.7199C39.1056 17.6595 39.1084 18.6019 39.0944 19.5416C35.4705 19.55 31.8466 19.55 28.2227 19.5416C28.2087 18.5991 28.2087 17.6595 28.2199 16.7171C29.5017 16.7086 30.7836 16.7143 32.0654 16.7143C32.0598 13.239 32.0598 9.76096 32.0654 6.28572C30.7836 6.28572 29.5017 6.29133 28.2199 6.28291C28.2087 5.34047 28.2087 4.40084 28.2199 3.4584Z" fill="#231F20"/>
<path d="M71.3393 3.4612C75.7822 3.44718 80.2251 3.44718 84.6709 3.4612C84.6765 5.20584 84.6709 6.95047 84.6737 8.6951C83.7116 8.6951 82.7495 8.6951 81.7874 8.6951C81.7846 7.8901 81.7846 7.08791 81.7903 6.28571C80.0512 6.28852 78.315 6.28852 76.576 6.28571C76.5704 7.49181 76.5732 8.69791 76.5732 9.90401C77.9756 9.90401 79.3781 9.90401 80.7805 9.90401C80.7805 10.7988 80.7805 11.6935 80.7805 12.5883C79.3781 12.5883 77.9756 12.5883 76.5732 12.5883C76.5788 13.9655 76.5592 15.3455 76.5872 16.7227C78.3711 16.703 80.155 16.7171 81.9389 16.7142C81.9361 15.7971 81.9361 14.8799 81.9389 13.9627C82.9178 13.9514 83.8967 13.9514 84.8756 13.9599C84.8756 15.8195 84.8896 17.6791 84.8672 19.5388C80.357 19.5528 75.8495 19.5528 71.3393 19.5388C71.3253 18.5991 71.3281 17.6595 71.3365 16.7199C72.0517 16.7114 72.7642 16.7114 73.4794 16.7171C73.4934 13.239 73.4934 9.76096 73.4794 6.28291C72.7642 6.28852 72.0489 6.28852 71.3337 6.27449C71.3281 5.33767 71.3281 4.39803 71.3393 3.4612Z" fill="#231F20"/>
<path d="M1.65765 3.60987C2.68424 3.61548 3.71082 3.60987 4.73741 3.61268C5.38814 7.86768 6.10338 12.1171 6.8579 16.3552C6.98412 16.0383 7.09631 15.7185 7.17204 15.3848C7.90692 11.7889 8.69509 8.20146 9.4468 4.60561C9.53936 4.23536 9.64594 3.67719 10.1172 3.63792C10.9474 3.58463 11.7833 3.58744 12.6135 3.63792C13.2923 3.95207 13.2081 4.85524 13.3933 5.47512C14.2067 9.10183 14.8322 12.7818 15.7662 16.3749C16.5964 12.1395 17.1995 7.86207 17.9512 3.61268C18.8936 3.61268 19.8361 3.61548 20.7813 3.60987C19.7351 8.48195 18.8123 13.3849 17.8222 18.2682C17.724 18.6552 17.7044 19.1237 17.3201 19.3508C16.2514 19.4995 15.1519 19.4883 14.0805 19.3593C13.7046 19.1265 13.6822 18.6552 13.5756 18.2738C12.7958 14.6835 12.103 11.0737 11.2644 7.49463C11.1185 7.77231 11.0231 8.07244 10.9698 8.38097C10.2967 11.716 9.5618 15.0398 8.88582 18.3748C8.78765 18.7815 8.65863 19.4154 8.12009 19.3985C7.12997 19.4659 6.12302 19.5051 5.14131 19.348C4.59717 18.9722 4.70656 18.2317 4.52985 17.6707C3.56217 12.9866 2.6618 8.28561 1.65765 3.60987Z" fill="white"/>
<path d="M49.8932 3.6127C52.987 3.6127 56.0836 3.60989 59.1773 3.6127C60.1366 3.6127 61.281 3.73611 61.8925 4.57757C62.6582 5.59014 62.6302 6.91684 62.6414 8.12294C62.6386 9.15513 62.5909 10.2855 61.9233 11.1326C61.4633 11.7496 60.6499 11.7805 60.016 12.1171C60.8687 12.3639 61.9626 12.5855 62.2431 13.5756C62.7872 15.4661 62.4422 17.4604 62.7227 19.3901C61.7326 19.3873 60.7453 19.3873 59.7551 19.3873C59.6486 17.6848 59.5027 15.985 59.4242 14.2796C59.4382 13.6009 58.7033 13.1605 58.0862 13.2194C56.3949 13.2082 54.7036 13.2222 53.0122 13.2166C53.0122 15.2726 53.0122 17.3314 53.0122 19.3873C51.9716 19.3873 50.931 19.3873 49.8932 19.3873C49.8932 14.1282 49.8932 8.87184 49.8932 3.6127ZM53.0122 6.2044C53.0122 7.72745 53.0122 9.2505 53.0122 10.7735C54.8775 10.7483 56.7483 10.8296 58.6108 10.7343C59.6121 10.6754 59.6261 9.47209 59.6654 8.72038C59.6345 7.89294 59.7888 6.79343 59.0175 6.24648C57.0204 6.1427 55.0149 6.23526 53.0122 6.2044Z" fill="white"/>
<path d="M94.7712 3.61269C97.4948 3.62391 100.221 3.58745 102.945 3.63233C104.468 3.68842 106.201 4.04464 107.107 5.3994C108.249 7.22257 108.069 9.45525 108.271 11.5084C108.072 13.5588 108.243 15.7831 107.107 17.6006C106.134 19.0479 104.252 19.3481 102.636 19.3789C100.014 19.3985 97.3938 19.3817 94.7712 19.3873C94.7712 14.1282 94.7712 8.87184 94.7712 3.61269ZM97.8903 6.2044C97.8903 9.73574 97.8903 13.2643 97.8903 16.7956C99.4862 16.7928 101.082 16.7984 102.681 16.7984C103.447 16.8125 104.375 16.6105 104.734 15.8476C105.27 14.6667 105.138 13.3372 105.183 12.0778C105.124 10.5015 105.348 8.85781 104.818 7.34318C104.58 6.56903 103.719 6.20159 102.964 6.21001C101.273 6.19318 99.5816 6.21281 97.8903 6.2044Z" fill="white"/>
<path d="M53.0122 6.20441C55.0149 6.23526 57.0204 6.1427 59.0175 6.24648C59.7888 6.79343 59.6346 7.89294 59.6654 8.72038C59.6262 9.47209 59.6121 10.6754 58.6108 10.7343C56.7483 10.8296 54.8775 10.7483 53.0122 10.7735C53.0122 9.2505 53.0122 7.72746 53.0122 6.20441Z" fill="#231F20"/>
<path d="M97.8903 6.2044C99.5816 6.21282 101.273 6.19318 102.964 6.21001C103.719 6.2016 104.58 6.56904 104.818 7.34318C105.348 8.85781 105.124 10.5015 105.183 12.0778C105.138 13.3372 105.27 14.6667 104.734 15.8476C104.375 16.6105 103.447 16.8124 102.681 16.7984C101.082 16.7984 99.4862 16.7928 97.8903 16.7956C97.8903 13.2643 97.8903 9.73574 97.8903 6.2044Z" fill="#231F20"/>
</g>
<defs>
<clipPath id="clip0_29_5">
<rect width="112.476" height="23" fill="white"/>
</clipPath>
</defs>
</svg>
